#!OML:ASF H:\ManfredObstacles\Project 1\Capture day 2\Session 1\male.ASF
:FULLY-SPECIFIED
:DEGREES
652
root 0.0403041 15.8245 6.59789 -171.995 -1.41285 176.574
lowerback -3.82504 -0.823271 -7.0608
upperback 1.44941 -0.754198 0.328927
thorax 3.75503 -0.55525 4.25288
lowerneck -36.6737 -0.299344 3.94921
upperneck 39.7073 -1.53032 0.970492
head 23.6744 0.982303 -0.348248
rclavicle -1.26228e-014 -1.2424e-014
rhumerus -40.5821 -23.6843 -70.8515
rradius 26.5081
rwrist 35.2183
rhand -1.20716 -6.86136
rfingers 7.12502
rthumb 24.4336 -35.3232
lclavicle -1.26228e-014 -1.2424e-014
lhumerus -28.1927 21.2318 79.5071
lradius 16.481
lwrist -60.8173
lhand 5.04364 5.61229
lfingers 7.12502
lthumb 30.4116 33.1242
rfemur -38.5767 0.761562 16.5821
rtibia 46.3539
rfoot -9.38589 -22.5568
rtoes -23.587
lfemur -1.04324 -9.27706 -28.5697
ltibia 15.9761
lfoot -7.26973 18.8955
ltoes -4.34991
653
root 0.0484584 15.8281 6.53842 -172.049 -1.60418 176.547
lowerback -3.70388 -0.867995 -7.09439
upperback 1.49868 -0.82157 0.35726
thorax 3.74765 -0.591262 4.29728
lowerneck -36.6859 -0.304959 3.93967
upperneck 39.6659 -1.5732 1.03154
head 23.6432 0.971249 -0.326692
rclavicle 1.01877e-014 6.65929e-015
rhumerus -40.7598 -23.9028 -70.6234
rradius 26.4095
rwrist 35.3864
rhand -1.20887 -6.83386
rfingers 7.12502
rthumb 24.432 -35.2959
lclavicle 1.01877e-014 6.65929e-015
lhumerus -28.1254 20.4778 79.8384
lradius 16.6636
lwrist -60.1566
lhand 5.12351 5.60398
lfingers 7.12502
lthumb 30.4878 33.1018
rfemur -38.9297 0.922223 16.2549
rtibia 45.2265
rfoot -8.62472 -22.3237
rtoes -23.4352
lfemur -0.2558 -9.34087 -28.5815
ltibia 15.0066
lfoot -6.9407 18.6365
ltoes -4.6267
654
root 0.0568768 15.8309 6.47794 -172.094 -1.80058 176.515
lowerback -3.58979 -0.908234 -7.1213
upperback 1.546 -0.882786 0.376925
thorax 3.74128 -0.624031 4.32937
lowerneck -36.7075 -0.318574 3.92737
upperneck 39.6213 -1.62794 1.0895
head 23.6121 0.954748 -0.310231
rclavicle -3.40419e-015 -1.53064e-014
rhumerus -40.9622 -24.1322 -70.3945
rradius 26.3224
rwrist 35.5542
rhand -1.22513 -6.79199
rfingers 7.12502
rthumb 24.4164 -35.2562
lclavicle -3.40419e-015 -1.53064e-014
lhumerus -28.0453 19.6617 80.1846
lradius 16.8581
lwrist -59.4894
lhand 5.20002 5.59484
lfingers 7.12502
lthumb 30.5607 33.0791
rfemur -39.2628 1.08632 15.9103
rtibia 44.0675
rfoot -7.80944 -22.0577
rtoes -23.3342
lfemur 0.547632 -9.3984 -28.5934
ltibia 13.9915
lfoot -6.58787 18.3447
ltoes -4.95462
655
root 0.0658334 15.8331 6.416 -172.129 -1.99435 176.477
lowerback -3.49552 -0.945982 -7.15108
upperback 1.59625 -0.938915 0.392406
thorax 3.74862 -0.654936 4.35895
lowerneck -36.7719 1.53632 2.52987
upperneck 39.4408 -2.68087 2.22791
head 23.5768 -0.79017 -0.307852
rclavicle 9.44227e-016 -8.74653e-015
rhumerus -41.1651 -24.3597 -70.1744
rradius 26.2427
rwrist 35.6842
rhand -1.22355 -6.77099
rfingers 7.12502
rthumb 24.4179 -35.235
lclavicle 9.44227e-016 -8.74653e-015
lhumerus -27.9486 18.8378 80.5349
lradius 17.0507
lwrist -58.8324
lhand 5.26564 5.5903
lfingers 7.12502
lthumb 30.6233 33.0629
rfemur -39.5774 1.27079 15.5441
rtibia 42.8829
rfoot -6.99807 -21.7729
rtoes -23.3309
lfemur 1.37272 -9.44055 -28.6057
ltibia 12.9196
lfoot -6.21201 18.0158
ltoes -5.32717
656
root 0.0752258 15.835 6.35264 -172.153 -2.1866 176.434
lowerback -3.42229 -0.981198 -7.17916
upperback 1.65296 -0.989925 0.403941
thorax 3.77394 -0.684114 4.38359
lowerneck -36.835 1.49241 2.51023
upperneck 39.3828 -2.73996 2.27047
head 23.5501 -0.801619 -0.295855
rclavicle 1.33683e-014 1.33186e-014
rhumerus -41.3678 -24.5708 -69.9757
rradius 26.189
rwrist 35.7603
rhand -1.19865 -6.78277
rfingers 7.12502
rthumb 24.4418 -35.2435
lclavicle 1.33683e-014 1.33186e-014
lhumerus -27.8292 18.0214 80.8882
lradius 17.2469
lwrist -58.1875
lhand 5.33455 5.60008
lfingers 7.12502
lthumb 30.689 33.0604
rfemur -39.8729 1.47396 15.1579
rtibia 41.6798
rfoot -6.22204 -21.4794
rtoes -23.3606
lfemur 2.23142 -9.46752 -28.6168
ltibia 11.7698
lfoot -5.82344 17.6446
ltoes -5.70902
657
root 0.0851436 15.8365 6.28774 -172.167 -2.37976 176.382
lowerback -3.36352 -1.019 -7.21246
upperback 1.71013 -1.04303 0.414188
thorax 3.80839 -0.71485 4.40951
lowerneck -36.9145 1.44853 2.48287
upperneck 39.3459 -2.79904 2.3106
head 23.5475 -0.815246 -0.284391
rclavicle -1.09083e-014 -1.98785e-014
rhumerus -41.5613 -24.7705 -69.7805
rradius 26.1201
rwrist 35.8396
rhand -1.18443 -6.79396
rfingers 7.12502
rthumb 24.4554 -35.2529
lclavicle -1.09083e-014 -1.98785e-014
lhumerus -27.7006 17.2221 81.2406
lradius 17.4444
lwrist -57.5553
lhand 5.39876 5.62146
lfingers 7.12502
lthumb 30.7502 33.0702
rfemur -40.1519 1.68806 14.749
rtibia 40.4676
rfoot -5.5059 -21.2015
rtoes -23.412
lfemur 3.14408 -9.48309 -28.632
ltibia 10.5053
lfoot -5.40351 17.2226
ltoes -6.09798
658
root 0.0956284 15.8377 6.22096 -172.177 -2.57682 176.32
lowerback -3.3134 -1.05781 -7.25035
upperback 1.76771 -1.09662 0.421966
thorax 3.84841 -0.746197 4.43529
lowerneck -36.9751 1.3957 2.43073
upperneck 39.3065 -2.86344 2.36612
head 23.5376 -0.833396 -0.261578
rclavicle -2.03257e-014 -1.2921e-014
rhumerus -41.7556 -24.9338 -69.6068
rradius 26.0652
rwrist 35.8736
rhand -1.16904 -6.83648
rfingers 7.12502
rthumb 24.4702 -35.2934
lclavicle -2.03257e-014 -1.2921e-014
lhumerus -27.5702 16.4787 81.5746
lradius 17.642
lwrist -56.9576
lhand 5.448 5.6534
lfingers 7.12502
lthumb 30.7972 33.0933
rfemur -40.4074 1.9125 14.3207
rtibia 39.2564
rfoot -4.86402 -20.957
rtoes -23.4508
lfemur 4.14716 -9.57808 -28.6558
ltibia 9.07119
lfoot -4.87918 16.8022
ltoes -6.48965
